<svg width="24" height="24" viewBox="0 0 24 24" fill="none" xmlns="http://www.w3.org/2000/svg">
<path d="M16.3934 11.772C15.9035 11.1448 15.2835 10.5352 14.7642 10.4593C14.245 10.3834 13.906 10.5593 13.1831 11.2587C12.7882 11.6409 8.49748 15.9298 8.29157 16.2843C8.08565 16.6387 8.03365 16.9927 8.25389 17.3724C8.46673 17.7393 9.08898 18.4791 9.69754 18.772C10.1709 18.9998 10.5623 19.0746 11.2776 18.4324C11.842 17.9257 16.0975 13.6743 16.5104 12.9266C16.7373 12.5162 16.6514 12.1025 16.3934 11.772Z" fill="white"/>
<path d="M15.6548 13.7534C16.2815 13.2631 16.8908 12.6427 16.9666 12.1231C17.0424 11.6035 16.8666 11.2642 16.1677 10.5408C15.7858 10.1456 11.1799 5.53151 10.8257 5.32561C10.4715 5.11955 10.1178 5.06751 9.73834 5.28791C9.37176 5.5009 8.63246 6.1236 8.33977 6.7326C8.11212 7.20627 8.03742 7.59793 8.67915 8.31375C9.22541 8.92308 13.7763 13.4697 14.5011 13.8707C14.9113 14.0975 15.3247 14.0116 15.6548 13.7534Z" fill="white"/>
</svg>
